<svg width="18" height="18" viewBox="0 0 18 18" fill="none" xmlns="http://www.w3.org/2000/svg">
<g clip-path="url(#clip0_714_138)">
<path d="M15.0001 0H3.75012C3.15338 0 2.58109 0.237053 2.15913 0.65901C1.73718 1.08097 1.50012 1.65326 1.50012 2.25V15.75C1.50012 16.3467 1.73718 16.919 2.15913 17.341C2.58109 17.7629 3.15338 18 3.75012 18H16.5001V1.5C16.5001 1.10218 16.3421 0.720644 16.0608 0.43934C15.7795 0.158035 15.3979 0 15.0001 0V0ZM15.0001 13.5H6.00012V1.5H15.0001V13.5ZM3.75012 1.5H4.50012V13.5H3.76287C3.50242 13.5022 3.24434 13.5497 3.00012 13.6403V2.25C3.00012 2.05109 3.07914 1.86032 3.21979 1.71967C3.36044 1.57902 3.55121 1.5 3.75012 1.5ZM3.75012 16.5C3.55224 16.5 3.36238 16.4218 3.2219 16.2825C3.08142 16.1431 3.0017 15.9539 3.00012 15.756H3.01137C3.01058 15.657 3.02939 15.5588 3.06673 15.4671C3.10407 15.3755 3.15919 15.2921 3.22891 15.2218C3.29863 15.1515 3.38158 15.0957 3.47297 15.0577C3.56435 15.0196 3.66237 15 3.76137 15H15.0001V16.5H3.75012Z" fill="black"/>
</g>
<defs>
<clipPath id="clip0_714_138">
<rect width="18" height="18" fill="white"/>
</clipPath>
</defs>
</svg>
