<svg width="17" height="17" viewBox="0 0 17 17" fill="none" xmlns="http://www.w3.org/2000/svg">
<g clip-path="url(#clip0_714_137)">
<path d="M16.2321 0.489557C15.9919 0.290041 15.7106 0.146073 15.4082 0.067949C15.1059 -0.0101752 14.79 -0.0205249 14.4832 0.0376402L5.98394 1.62927C5.49639 1.72053 5.05612 1.97948 4.73943 2.36125C4.42274 2.74301 4.24957 3.22353 4.24994 3.71956V11.7273C3.82115 11.4723 3.33212 11.3364 2.83327 11.3334C2.27289 11.3334 1.7251 11.4996 1.25916 11.8109C0.793219 12.1223 0.430063 12.5648 0.215615 13.0825C0.00116659 13.6002 -0.0549428 14.1699 0.0543819 14.7195C0.163707 15.2691 0.433556 15.774 0.829804 16.1702C1.22605 16.5665 1.73091 16.8363 2.28052 16.9457C2.83013 17.055 3.39982 16.9989 3.91754 16.7844C4.43527 16.57 4.87777 16.2068 5.1891 15.7409C5.50044 15.2749 5.66661 14.7271 5.66661 14.1668V6.6726L15.5833 4.81677V9.60581C15.1548 9.34962 14.6658 9.21244 14.1666 9.20843C13.6062 9.20843 13.0584 9.3746 12.5925 9.68593C12.1266 9.99727 11.7634 10.4398 11.5489 10.9575C11.3345 11.4752 11.2784 12.0449 11.3877 12.5945C11.497 13.1441 11.7669 13.649 12.1631 14.0452C12.5594 14.4415 13.0642 14.7113 13.6139 14.8207C14.1635 14.93 14.7332 14.8739 15.2509 14.6594C15.7686 14.445 16.2111 14.0818 16.5224 13.6159C16.8338 13.1499 16.9999 12.6021 16.9999 12.0418V2.1251C17 1.81281 16.9312 1.50434 16.7985 1.22166C16.6658 0.938968 16.4724 0.689006 16.2321 0.489557V0.489557ZM2.83327 15.5834C2.55308 15.5834 2.27919 15.5003 2.04622 15.3447C1.81325 15.189 1.63167 14.9678 1.52444 14.7089C1.41722 14.45 1.38917 14.1652 1.44383 13.8904C1.49849 13.6156 1.63341 13.3632 1.83154 13.165C2.02966 12.9669 2.28209 12.832 2.5569 12.7773C2.8317 12.7227 3.11655 12.7507 3.37541 12.8579C3.63427 12.9652 3.85552 13.1467 4.01119 13.3797C4.16685 13.6127 4.24994 13.8866 4.24994 14.1668C4.24994 14.5425 4.10069 14.9028 3.83501 15.1685C3.56933 15.4342 3.209 15.5834 2.83327 15.5834ZM5.66661 5.23185V3.71956C5.66656 3.5544 5.72424 3.39442 5.82965 3.26727C5.93506 3.14013 6.08159 3.05382 6.2439 3.02327L14.7439 1.42952C14.8462 1.41026 14.9514 1.41378 15.0522 1.43983C15.153 1.46588 15.2468 1.51381 15.3269 1.58022C15.407 1.64663 15.4716 1.72989 15.5159 1.82406C15.5602 1.91824 15.5832 2.02102 15.5833 2.1251V3.37177L5.66661 5.23185ZM14.1666 13.4584C13.8864 13.4584 13.6125 13.3753 13.3795 13.2197C13.1466 13.064 12.965 12.8428 12.8578 12.5839C12.7506 12.325 12.7225 12.0402 12.7772 11.7654C12.8318 11.4906 12.9667 11.2382 13.1649 11.04C13.363 10.8419 13.6154 10.707 13.8902 10.6523C14.165 10.5977 14.4499 10.6257 14.7087 10.7329C14.9676 10.8402 15.1889 11.0217 15.3445 11.2547C15.5002 11.4877 15.5833 11.7616 15.5833 12.0418C15.5833 12.4175 15.434 12.7778 15.1683 13.0435C14.9027 13.3092 14.5423 13.4584 14.1666 13.4584Z" fill="black"/>
</g>
<defs>
<clipPath id="clip0_714_137">
<rect width="17" height="17" fill="white"/>
</clipPath>
</defs>
</svg>
