<svg width="18" height="18" viewBox="0 0 18 18" fill="none" xmlns="http://www.w3.org/2000/svg">
<g clip-path="url(#clip0_714_139)">
<path d="M17.1915 1.275C16.9389 1.0633 16.6427 0.909971 16.3241 0.82596C16.0054 0.741949 15.6721 0.72933 15.348 0.789003L10.713 1.63125C10.0497 1.75084 9.4462 2.09066 9 2.59575C8.55413 2.08983 7.95056 1.74919 7.287 1.629L2.652 0.786753C2.32783 0.727887 1.99468 0.740933 1.6761 0.824971C1.35753 0.909008 1.06129 1.06199 0.808336 1.27309C0.555379 1.4842 0.351872 1.74829 0.212195 2.04669C0.0725179 2.34509 8.00589e-05 2.67053 0 3L0 15.6255L9 17.2628L18 15.6255V3C18 2.67077 17.9276 2.34556 17.7879 2.04745C17.6482 1.74933 17.4446 1.48562 17.1915 1.275V1.275ZM8.25 15.6L1.5 14.3745V3C1.50009 2.89019 1.5243 2.78175 1.5709 2.68232C1.61751 2.58289 1.68538 2.49491 1.76972 2.42459C1.85406 2.35428 1.95281 2.30333 2.059 2.27537C2.16518 2.2474 2.27622 2.2431 2.38425 2.26275L7.0185 3.105C7.36412 3.16788 7.6767 3.35007 7.90176 3.61981C8.12681 3.88954 8.25005 4.22971 8.25 4.581V15.6ZM16.5 14.373L9.75 15.6V4.581C9.74995 4.22971 9.87319 3.88954 10.0982 3.61981C10.3233 3.35007 10.6359 3.16788 10.9815 3.105L15.6157 2.26275C15.7238 2.2431 15.8348 2.2474 15.941 2.27537C16.0472 2.30333 16.1459 2.35428 16.2303 2.42459C16.3146 2.49491 16.3825 2.58289 16.4291 2.68232C16.4757 2.78175 16.4999 2.89019 16.5 3V14.373Z" fill="#020202"/>
</g>
<defs>
<clipPath id="clip0_714_139">
<rect width="18" height="18" fill="white"/>
</clipPath>
</defs>
</svg>
