<svg width="20" height="20" viewBox="0 0 20 20" fill="none" xmlns="http://www.w3.org/2000/svg">
<g clip-path="url(#clip0_714_141)">
<path d="M16.6664 9.99986C16.1551 9.99977 15.6507 10.1174 15.1923 10.3438C14.7339 10.5701 14.3338 10.8989 14.023 11.3049L13.9647 11.2799C14.1939 10.5699 14.2282 9.81138 14.0642 9.08358C13.9001 8.35579 13.5436 7.68539 13.032 7.14241C12.5203 6.59943 11.8723 6.20379 11.1555 5.9968C10.4387 5.78981 9.67954 5.77907 8.9572 5.9657L8.88136 5.82237C9.48668 5.2838 9.87481 4.54298 9.97303 3.73873C10.0713 2.93449 9.87281 2.12203 9.4149 1.45362C8.95699 0.785206 8.27105 0.306723 7.48562 0.107842C6.70018 -0.09104 5.86918 0.0033316 5.14835 0.37327C4.42752 0.743209 3.86633 1.36332 3.56996 2.11739C3.2736 2.87146 3.26239 3.70773 3.53845 4.46947C3.81451 5.23121 4.35888 5.86613 5.06955 6.25525C5.78021 6.64437 6.60838 6.76097 7.39886 6.5832L7.4597 6.69736C6.62641 7.33681 6.06585 8.26779 5.89057 9.30342C5.71528 10.3391 5.93825 11.4027 6.51469 12.2807L4.94386 13.7499C4.23383 13.3576 3.40512 13.2377 2.61302 13.4126C1.82092 13.5875 1.11979 14.0453 0.641026 14.7002C0.162259 15.355 -0.0612877 16.1619 0.0122765 16.9698C0.0858406 17.7776 0.451466 18.5309 1.04064 19.0885C1.62981 19.6461 2.40209 19.9697 3.21276 19.9987C4.02344 20.0277 4.81686 19.7601 5.44435 19.246C6.07184 18.7319 6.49033 18.0066 6.62141 17.2061C6.75248 16.4056 6.58714 15.5847 6.15636 14.8974L7.68803 13.4657C8.52926 14.028 9.54656 14.2644 10.5496 14.1308C11.5525 13.9972 12.4725 13.5027 13.1372 12.7399L13.3697 12.839C13.2688 13.5119 13.3763 14.1995 13.6776 14.8096C13.979 15.4196 14.4598 15.9228 15.0555 16.2516C15.6512 16.5803 16.3333 16.7189 17.01 16.6488C17.6868 16.5786 18.3259 16.303 18.8414 15.859C19.357 15.4149 19.7243 14.8238 19.8941 14.1649C20.0639 13.506 20.0279 12.811 19.7911 12.1731C19.5544 11.5353 19.128 10.9851 18.5694 10.5966C18.0109 10.2081 17.3468 9.9999 16.6664 9.99986V9.99986ZM4.99969 3.3332C4.99969 3.00356 5.09744 2.68133 5.28058 2.40725C5.46371 2.13317 5.72401 1.91955 6.02856 1.7934C6.3331 1.66725 6.66821 1.63425 6.99151 1.69856C7.31481 1.76287 7.61179 1.9216 7.84487 2.15469C8.07796 2.38777 8.2367 2.68475 8.301 3.00805C8.36531 3.33135 8.33231 3.66646 8.20616 3.971C8.08002 4.27555 7.86639 4.53585 7.59231 4.71898C7.31823 4.90212 6.996 4.99987 6.66636 4.99987C6.22433 4.99987 5.80041 4.82427 5.48785 4.51171C5.17529 4.19915 4.99969 3.77523 4.99969 3.3332ZM3.33303 18.3332C3.00339 18.3332 2.68116 18.2354 2.40708 18.0523C2.133 17.8692 1.91937 17.6089 1.79323 17.3043C1.66708 16.9998 1.63408 16.6647 1.69839 16.3414C1.76269 16.0181 1.92143 15.7211 2.15452 15.488C2.3876 15.2549 2.68458 15.0962 3.00788 15.0319C3.33118 14.9676 3.66629 15.0006 3.97083 15.1267C4.27538 15.2529 4.53568 15.4665 4.71881 15.7406C4.90195 16.0147 4.99969 16.3369 4.99969 16.6665C4.99969 17.1086 4.8241 17.5325 4.51154 17.845C4.19898 18.1576 3.77506 18.3332 3.33303 18.3332ZM9.9997 12.4999C9.4586 12.4988 8.93246 12.3222 8.50029 11.9966C8.06811 11.6711 7.75324 11.214 7.60295 10.6942C7.45266 10.1744 7.47508 9.6199 7.66683 9.11392C7.85858 8.60795 8.20932 8.17784 8.66636 7.8882L9.00553 7.70736C9.34633 7.55912 9.71589 7.48872 10.0873 7.5013C10.4588 7.51387 10.8227 7.6091 11.1527 7.78005C11.4827 7.951 11.7704 8.19337 11.9949 8.48953C12.2195 8.78569 12.3751 9.12818 12.4506 9.49207C12.5261 9.85597 12.5195 10.2321 12.4313 10.5931C12.3431 10.9542 12.1756 11.291 11.9408 11.5791C11.706 11.8672 11.41 12.0993 11.0742 12.2586C10.7384 12.4179 10.3713 12.5003 9.9997 12.4999V12.4999ZM16.6664 14.9999C16.3367 14.9999 16.0145 14.9021 15.7404 14.719C15.4663 14.5358 15.2527 14.2755 15.1266 13.971C15.0004 13.6665 14.9674 13.3313 15.0317 13.008C15.096 12.6847 15.2548 12.3878 15.4879 12.1547C15.7209 11.9216 16.0179 11.7629 16.3412 11.6986C16.6645 11.6342 16.9996 11.6673 17.3042 11.7934C17.6087 11.9195 17.869 12.1332 18.0521 12.4072C18.2353 12.6813 18.333 13.0036 18.333 13.3332C18.333 13.7752 18.1574 14.1991 17.8449 14.5117C17.5323 14.8243 17.1084 14.9999 16.6664 14.9999Z" fill="black"/>
</g>
<defs>
<clipPath id="clip0_714_141">
<rect width="20" height="20" fill="white"/>
</clipPath>
</defs>
</svg>
