<svg width="18" height="18" viewBox="0 0 18 18" fill="none" xmlns="http://www.w3.org/2000/svg">
<g clip-path="url(#clip0_714_143)">
<path d="M7.01688 0L0.281126 14.8193C0.125411 15.162 0.0581667 15.5383 0.0855528 15.9137C0.112939 16.2891 0.23408 16.6517 0.437881 16.9682C0.641683 17.2847 0.921631 17.545 1.25209 17.7252C1.58254 17.9055 1.95295 18 2.32938 18H8.24988V0.7845L8.24463 0H7.01688ZM6.74988 16.5H2.32938C2.20383 16.5001 2.08026 16.4687 1.97001 16.4086C1.85976 16.3485 1.76635 16.2617 1.69836 16.1562C1.63036 16.0507 1.58994 15.9297 1.58082 15.8045C1.57169 15.6793 1.59415 15.5538 1.64613 15.4395L6.74988 4.212V16.5Z" fill="black"/>
<path d="M17.7186 14.8193L11.1974 0.471L10.9694 0H9.74988V18H15.6704C16.0468 18 16.4172 17.9055 16.7477 17.7252C17.0781 17.545 17.3581 17.2847 17.5619 16.9682C17.7657 16.6517 17.8868 16.2891 17.9142 15.9137C17.9416 15.5383 17.8743 15.162 17.7186 14.8193Z" fill="black"/>
</g>
<defs>
<clipPath id="clip0_714_143">
<rect width="18" height="18" fill="white"/>
</clipPath>
</defs>
</svg>
