<svg width="24" height="24" viewBox="0 0 24 24" fill="none" xmlns="http://www.w3.org/2000/svg">
<g clip-path="url(#clip0_714_142)">
<path d="M22.0001 7.99969V9.02569C21.1397 8.36389 20.0856 8.00337 19.0001 7.99969C17.674 7.99969 16.4023 8.52648 15.4646 9.46416C14.5269 10.4018 14.0001 11.6736 14.0001 12.9997C14.0001 14.3258 14.5269 15.5975 15.4646 16.5352C16.4023 17.4729 17.674 17.9997 19.0001 17.9997C20.0856 17.996 21.1397 17.6355 22.0001 16.9737V17.9997H24.0001V7.99969H22.0001ZM19.0001 15.9997C18.4068 15.9997 17.8268 15.8237 17.3334 15.4941C16.8401 15.1645 16.4555 14.6959 16.2285 14.1477C16.0014 13.5996 15.942 12.9964 16.0578 12.4144C16.1735 11.8325 16.4592 11.2979 16.8788 10.8784C17.2984 10.4588 17.8329 10.1731 18.4149 10.0573C18.9968 9.94158 19.6 10.001 20.1482 10.2281C20.6964 10.4551 21.1649 10.8396 21.4945 11.333C21.8242 11.8263 22.0001 12.4064 22.0001 12.9997C22.0001 13.7953 21.6841 14.5584 21.1214 15.121C20.5588 15.6836 19.7958 15.9997 19.0001 15.9997Z" fill="black"/>
<path d="M12 17.9999H14.236L7.118 3.76385L0 17.9999H2.236L4.236 13.9999H10L12 17.9999ZM5.236 11.9999L7.118 8.23586L9 11.9999H5.236Z" fill="black"/>
</g>
<defs>
<clipPath id="clip0_714_142">
<rect width="24" height="24" fill="white"/>
</clipPath>
</defs>
</svg>
